<svg xmlns="http://www.w3.org/2000/svg" viewBox="996.127 -148.937 63.596 35">
  <defs>
    <style>
      .cls-1 {
        fill: #fff;
        fill-rule: evenodd;
      }
    </style>
  </defs>
  <g id="Group_6" data-name="Group 6" transform="translate(712 -1703)">
    <path id="Path_5" data-name="Path 5" class="cls-1" d="M38.285,93.619,25,128.619h6.345l10.277-28.06,5.511,15.876-7.358-.059L38.136,121.5H48.889l2.532,7.119h6.017L71.022,98.5h4.528l.8.03.745.059.685.119.625.149.6.209.536.268.238.149.238.149.209.179.209.209.387.387.357.417.268.417.268.477.179.507.149.566.089.6.03.655-.03.685-.06.655-.119.6-.179.566-.238.506-.268.506-.328.447-.387.387-.417.387-.476.3-.536.268-.6.238-.626.149-.685.149-.745.059-.8.03H70.1l11.528,18.647H88.6l-9.234-14.536.536-.119.536-.119.506-.149.477-.149.477-.179.447-.209.447-.179.417-.238.417-.238.357-.238.387-.268.328-.3.328-.3.328-.3.3-.328.268-.357.507-.715.417-.745.387-.745.3-.8.238-.775.149-.834.119-.864.03-.864-.03-.566-.03-.536-.059-.536-.089-.507-.119-.536-.119-.477-.179-.506-.179-.477-.209-.447-.238-.447-.268-.447-.3-.417-.3-.417-.357-.387-.357-.387-.387-.387-.417-.357-.447-.328-.447-.3-.477-.3-.507-.268-.506-.238-.536-.209-.566-.209-.6-.179-.6-.149-.625-.119-.655-.089-.655-.089-.685-.059-.715-.03H66.255L54.7,120.964l-9.77-27.345Z" transform="translate(259.127 1460.443)"/>
    <path id="Path_6" data-name="Path 6" class="cls-1" d="M333.079,93.619l5.511,13.791,3.217-7.566-2.234-6.226Z" transform="translate(-22.829 1460.443)"/>
  </g>
</svg>
